HIERARCHY
ROOT joint_Root
{
	OFFSET 0.0 0.0 0.0
	CHANNELS 6 Xposition Yposition Zposition Zrotation Xrotation Yrotation 
	JOINT Hips
	{
		OFFSET 4.5925 91.4895 -427.239
		CHANNELS 6 Xposition Yposition Zposition Zrotation Xrotation Yrotation 
		JOINT Spine
		{
			OFFSET 15.7357 0.0 0.0
			CHANNELS 6 Xposition Yposition Zposition Zrotation Xrotation Yrotation 
			JOINT Chest
			{
				OFFSET 8.98455 -0.406207 0.0
				CHANNELS 6 Xposition Yposition Zposition Zrotation Xrotation Yrotation 
				JOINT Neck
				{
					OFFSET 16.3773 0.0 0.0
					CHANNELS 6 Xposition Yposition Zposition Zrotation Xrotation Yrotation 
					JOINT Head
					{
						OFFSET 6.45672 0.0 0.0
						CHANNELS 6 Xposition Yposition Zposition Zrotation Xrotation Yrotation 
						End Site
						{
							OFFSET 0.0 0.0 0.0
						}
					}
				}
				JOINT Shoulder_L
				{
					OFFSET 12.9942 -0.242716 4.98039
					CHANNELS 6 Xposition Yposition Zposition Zrotation Xrotation Yrotation 
					JOINT UpperArm_L
					{
						OFFSET 5.34809 0.0 0.0
						CHANNELS 6 Xposition Yposition Zposition Zrotation Xrotation Yrotation 
						JOINT LowerArm_L
						{
							OFFSET 24.3286 1.87007e-05 0.0
							CHANNELS 6 Xposition Yposition Zposition Zrotation Xrotation Yrotation 
							JOINT Hand_L
							{
								OFFSET 22.2916 0.0 0.0
								CHANNELS 6 Xposition Yposition Zposition Zrotation Xrotation Yrotation 
								End Site
								{
									OFFSET 0.0 0.0 0.0
								}
							}
						}
					}
				}
				JOINT Shoulder_R
				{
					OFFSET 12.9945 -0.242716 -4.98039
					CHANNELS 6 Xposition Yposition Zposition Zrotation Xrotation Yrotation 
					JOINT UpperArm_R
					{
						OFFSET -5.34813 0.0 0.0
						CHANNELS 6 Xposition Yposition Zposition Zrotation Xrotation Yrotation 
						JOINT LowerArm_R
						{
							OFFSET -24.3289 0.000322201 0.0
							CHANNELS 6 Xposition Yposition Zposition Zrotation Xrotation Yrotation 
							JOINT Hand_R
							{
								OFFSET -22.2915 -0.000108084 0.0
								CHANNELS 6 Xposition Yposition Zposition Zrotation Xrotation Yrotation 
								End Site
								{
									OFFSET 0.0 0.0 0.0
								}
							}
						}
					}
				}
			}
		}
		JOINT UpperLeg_L
		{
			OFFSET -2.19248 -6.46944 0.0
			CHANNELS 6 Xposition Yposition Zposition Zrotation Xrotation Yrotation 
			JOINT LowerLeg_L
			{
				OFFSET 39.0811 0.0 -1.23785e-05
				CHANNELS 6 Xposition Yposition Zposition Zrotation Xrotation Yrotation 
				JOINT Foot_L
				{
					OFFSET 40.9854 0.0 -1.26872e-05
					CHANNELS 6 Xposition Yposition Zposition Zrotation Xrotation Yrotation 
					JOINT Toes_L
					{
						OFFSET 11.7543 0.0 0.0
						CHANNELS 6 Xposition Yposition Zposition Zrotation Xrotation Yrotation 
						End Site
						{
							OFFSET 0.0 0.0 0.0
						}
					}
				}
			}
		}
		JOINT UpperLeg_R
		{
			OFFSET -2.19251 6.46944 0.0
			CHANNELS 6 Xposition Yposition Zposition Zrotation Xrotation Yrotation 
			JOINT LowerLeg_R
			{
				OFFSET -39.0811 -0.00228153 -0.0401928
				CHANNELS 6 Xposition Yposition Zposition Zrotation Xrotation Yrotation 
				JOINT Foot_R
				{
					OFFSET -40.9854 0.0 0.0
					CHANNELS 6 Xposition Yposition Zposition Zrotation Xrotation Yrotation 
					JOINT Toes_R
					{
						OFFSET -11.7543 0.0 0.0
						CHANNELS 6 Xposition Yposition Zposition Zrotation Xrotation Yrotation 
						End Site
						{
							OFFSET 0.0 0.0 0.0
						}
					}
				}
			}
		}
	}
}
MOTION
Frames:	5
Frame Time:	0.0333333
0.000000 0.000000 0.000000 0.000000 0.000000 -0.000000 2.414570 92.187000 -523.366000 92.330500 -16.737300 -4.066350 15.735700 0.000005 -0.000001 126.401000 82.810700 -127.956000 8.984550 -0.406207 -0.000000 3.962560 8.572460 -3.408590 16.377300 -0.000001 -0.000001 -1.753770 -1.714930 2.446610 6.456720 -0.000001 -0.000000 -1.981850 -4.358960 1.208190 12.994200 -0.242716 4.980390 -87.124700 -8.114140 -70.412100 5.348090 -0.000007 -0.000001 -83.415900 43.541800 41.633800 24.328600 0.000019 0.000005 10.458000 6.470110 -58.602500 22.291600 -0.000001 0.000005 -2.409230 5.560220 -9.198050 12.994500 -0.242716 -4.980390 90.039600 -0.333249 -83.243300 -5.348130 -0.000001 -0.000004 -48.860100 25.532600 -62.475300 -24.328900 0.000322 -0.000009 -5.253370 2.791600 -117.903000 -22.291500 -0.000108 -0.000004 19.942700 5.590530 -10.791900 -2.192480 -6.469440 -0.000000 177.674000 -5.039620 -38.236200 39.081100 -0.000007 -0.000012 0.082238 -0.030296 69.772700 40.985400 -0.000006 -0.000013 6.214920 -10.758600 -65.626100 11.754300 -0.000000 0.000003 -0.006707 -0.077138 -19.716800 -2.192510 6.469440 -0.000001 171.166000 14.200100 -177.735000 -39.081100 -0.002282 -0.040193 0.024898 -0.043850 26.211700 -40.985400 0.000008 0.000006 11.194700 22.903100 -64.607800 -11.754300 -0.000006 -0.000006 -0.111585 -0.472433 -36.351200
0.000000 0.000000 0.000000 0.000000 0.000000 -0.000000 2.416950 92.734500 -520.970000 92.511800 -15.898400 -4.981360 15.735700 0.000005 -0.000001 129.687000 82.784000 -131.569000 8.984550 -0.406207 -0.000000 3.534960 9.274750 -4.052060 16.377300 -0.000001 -0.000001 -1.668730 -2.335650 2.389540 6.456720 -0.000001 -0.000000 -2.076860 -5.249900 1.619900 12.994200 -0.242716 4.980390 -86.315200 -10.343600 -70.268400 5.348090 -0.000007 -0.000001 -85.032900 42.143400 44.868700 24.328600 0.000019 0.000005 8.327250 4.490440 -61.862100 22.291600 -0.000001 0.000005 -3.022270 5.558720 -9.125270 12.994500 -0.242716 -4.980390 90.248300 -1.922290 -82.643400 -5.348130 -0.000001 -0.000004 -50.629400 22.748000 -61.898400 -24.328900 0.000322 -0.000009 -6.345430 3.765850 -120.565000 -22.291500 -0.000108 -0.000004 19.880100 5.583510 -10.403100 -2.192480 -6.469440 -0.000000 177.051000 -4.961110 -39.020900 39.081100 -0.000007 -0.000012 0.060059 -0.032228 61.778400 40.985400 -0.000006 -0.000013 4.781150 -9.087950 -67.621200 11.754300 -0.000000 0.000003 -0.006581 -0.076030 -19.671600 -2.192510 6.469440 -0.000001 170.018000 16.731800 -175.948000 -39.081100 -0.002282 -0.040193 0.024281 -0.048498 23.379300 -40.985400 0.000008 0.000006 10.589400 25.447300 -61.038000 -11.754300 -0.000006 -0.000006 -0.129437 -0.512405 -38.126000
0.000000 0.000000 0.000000 0.000000 0.000000 -0.000000 2.357070 92.406400 -518.504000 92.202100 -14.862600 -5.576320 15.735700 0.000005 -0.000001 130.786000 82.716600 -132.747000 8.984550 -0.406207 -0.000000 3.472170 9.578050 -4.215740 16.377300 -0.000001 -0.000001 -1.917150 -2.701800 2.237410 6.456720 -0.000001 -0.000000 -2.369490 -5.850070 1.705990 12.994200 -0.242716 4.980390 -85.858600 -11.396500 -69.875300 5.348090 -0.000007 -0.000001 -84.992000 41.055800 45.691900 24.328600 0.000019 0.000005 7.779620 3.680840 -64.832400 22.291600 -0.000001 0.000005 -2.226510 5.548990 -8.659580 12.994500 -0.242716 -4.980390 90.425300 -3.140500 -82.285000 -5.348130 -0.000001 -0.000004 -51.705300 21.429800 -60.684000 -24.328900 0.000322 -0.000009 -7.292520 4.557110 -121.835000 -22.291500 -0.000108 -0.000004 20.274800 5.577050 -10.055300 -2.192480 -6.469440 -0.000000 176.465000 -6.187900 -39.153100 39.081100 -0.000007 -0.000012 0.038087 -0.027286 54.377900 40.985400 -0.000006 -0.000013 4.021740 -7.720990 -69.425900 11.754300 -0.000000 0.000003 -0.007264 -0.081922 -19.912000 -2.192510 6.469440 -0.000001 169.561000 18.088000 -174.193000 -39.081100 -0.002282 -0.040193 0.024145 -0.050578 22.382200 -40.985400 0.000008 0.000006 10.466300 26.001500 -60.066500 -11.754300 -0.000006 -0.000006 -0.140334 -0.535285 -39.153500
0.000000 0.000000 0.000000 0.000000 0.000000 -0.000000 2.220660 91.167900 -515.862000 91.612600 -13.966400 -5.815960 15.735700 0.000005 -0.000001 130.811000 82.556700 -132.626000 8.984550 -0.406207 -0.000000 3.704710 9.781540 -3.949220 16.377300 -0.000001 -0.000001 -2.096830 -2.684850 2.050220 6.456720 -0.000001 -0.000000 -3.109240 -6.266220 1.627940 12.994200 -0.242716 4.980390 -85.834500 -11.177400 -69.407900 5.348090 -0.000007 -0.000001 -83.359200 39.792900 43.971900 24.328600 0.000019 0.000005 6.998910 2.961930 -67.175700 22.291600 -0.000001 0.000005 -1.918300 5.543830 -8.418570 12.994500 -0.242716 -4.980390 90.525500 -3.689070 -81.887600 -5.348130 -0.000001 -0.000004 -51.216300 21.638900 -59.273600 -24.328900 0.000322 -0.000009 -9.238670 5.663390 -121.249000 -22.291500 -0.000108 -0.000004 20.451600 5.576880 -10.044900 -2.192480 -6.469440 -0.000000 175.765000 -8.310550 -39.105900 39.081100 -0.000007 -0.000012 0.023132 -0.020000 49.148400 40.985400 -0.000006 -0.000013 3.911400 -6.401340 -70.116200 11.754300 -0.000000 0.000003 -0.009953 -0.103299 -20.785500 -2.192510 6.469440 -0.000001 169.581000 17.768600 -172.278000 -39.081100 -0.002282 -0.040193 0.021647 -0.043610 22.798800 -40.985400 0.000008 0.000006 10.752400 24.656400 -61.680300 -11.754300 -0.000006 -0.000006 -0.153421 -0.561449 -40.339600
0.000000 0.000000 0.000000 0.000000 0.000000 -0.000000 2.180660 89.146000 -512.927000 91.258800 -13.508400 -5.942980 15.735700 0.000005 -0.000001 130.498000 82.465100 -132.235000 8.984550 -0.406207 -0.000000 3.893290 9.832160 -3.811060 16.377300 -0.000001 -0.000001 -2.162000 -2.565290 2.183190 6.456720 -0.000001 -0.000000 -3.726510 -6.049370 1.646710 12.994200 -0.242716 4.980390 -86.228600 -9.946660 -69.111200 5.348090 -0.000007 -0.000001 -81.077100 37.986100 40.794900 24.328600 0.000019 0.000005 5.856330 2.251440 -69.046800 22.291600 -0.000001 0.000005 -1.180420 5.535840 -8.055660 12.994500 -0.242716 -4.980390 90.434000 -2.989900 -81.731600 -5.348130 -0.000001 -0.000004 -48.755100 23.639300 -57.295800 -24.328900 0.000322 -0.000009 -11.628300 6.503710 -118.832000 -22.291500 -0.000108 -0.000004 20.461600 5.580360 -10.231200 -2.192480 -6.469440 -0.000000 174.159000 -11.768900 -39.366100 39.081100 -0.000007 -0.000012 0.014747 -0.013651 47.203100 40.985400 -0.000006 -0.000013 2.681100 -4.984750 -71.054600 11.754300 -0.000000 0.000003 -0.006682 -0.076914 -19.707700 -2.192510 6.469440 -0.000001 169.451000 15.782900 -170.505000 -39.081100 -0.002282 -0.040193 0.015586 -0.027204 24.281300 -40.985400 0.000008 0.000006 10.883600 22.472000 -65.117200 -11.754300 -0.000006 -0.000006 -0.171684 -0.595858 -41.919000
